<svg width="21.000000" height="15.000000" viewBox="0 0 21 15" fill="none" xmlns="http://www.w3.org/2000/svg" xmlns:xlink="http://www.w3.org/1999/xlink">
	<desc>
			Created with Pixso.
	</desc>
	<defs/>
	<path id="Vector - 0" d="M17.96 1.48C16.01 0.51 13.43 0 10.5 0C7.56 0 4.98 0.51 3.03 1.48C1.09 2.45 0 3.82 0 5.25L0 9.75C0 11.17 1.1 12.54 3.03 13.51C4.97 14.48 7.56 15 10.5 15C13.43 15 16.01 14.48 17.96 13.51C19.9 12.54 21 11.17 21 9.75L21 5.25C21 3.82 19.89 2.45 17.96 1.48ZM10.5 1.5C16.37 1.5 19.5 3.67 19.5 5.25C19.5 6.82 16.37 9 10.5 9C4.62 9 1.5 6.82 1.5 5.25C1.5 3.67 4.62 1.5 10.5 1.5ZM9.75 10.48L9.75 13.48C7.96 13.42 6.46 13.16 5.25 12.78L5.25 9.84C6.71 10.23 8.22 10.45 9.75 10.48ZM11.25 10.48C12.77 10.45 14.28 10.23 15.75 9.84L15.75 12.78C14.53 13.16 13.03 13.42 11.25 13.48L11.25 10.48ZM1.5 9.75L1.5 8.01C1.97 8.41 2.48 8.74 3.03 9.01C3.26 9.12 3.5 9.23 3.75 9.33L3.75 12.18C2.26 11.45 1.5 10.52 1.5 9.75ZM17.25 12.18L17.25 9.33C17.49 9.23 17.73 9.12 17.96 9.01C18.51 8.74 19.02 8.41 19.5 8.01L19.5 9.75C19.5 10.52 18.73 11.45 17.25 12.18Z" fill="#968FCC" fill-opacity="1.000000" fill-rule="evenodd"/>
</svg>
