<svg width="19.500214" height="18.687805" viewBox="0 0 19.5002 18.6878" fill="none" xmlns="http://www.w3.org/2000/svg" xmlns:xlink="http://www.w3.org/1999/xlink">
	<desc>
			Created with Pixso.
	</desc>
	<defs/>
	<path id="Vector - 0" d="M18.64 0.14C18.06 -0.13 17.38 -0.01 16.93 0.43C16.92 0.45 16.91 0.46 16.9 0.47L15.28 2.34C11.9 0.22 7.6 0.22 4.21 2.34L2.59 0.47C2.58 0.46 2.57 0.45 2.56 0.43C2.11 -0.01 1.43 -0.13 0.85 0.14C0.32 0.4 -0.01 0.94 0 1.54L0 9.74C0 14.34 3.75 18.15 8.58 18.68C8.69 18.69 8.79 18.66 8.87 18.59C8.95 18.51 9 18.41 9 18.31L9 15.31L7.74 14.05C7.44 13.76 7.42 13.29 7.7 12.98C7.84 12.83 8.03 12.75 8.23 12.74C8.44 12.74 8.63 12.82 8.78 12.96L9.75 13.93L10.71 12.96C10.86 12.82 11.05 12.74 11.26 12.74C11.46 12.75 11.65 12.83 11.79 12.98C12.07 13.29 12.05 13.76 11.75 14.05L10.5 15.3L10.5 18.3C10.49 18.41 10.54 18.51 10.62 18.59C10.7 18.66 10.81 18.69 10.91 18.68C15.74 18.15 19.5 14.34 19.5 9.74L19.5 1.54C19.5 0.94 19.17 0.4 18.64 0.14ZM5.62 11.24C5 11.24 4.5 10.74 4.5 10.12C4.5 9.5 5 8.99 5.62 8.99C6.24 8.99 6.75 9.5 6.75 10.12C6.75 10.74 6.24 11.24 5.62 11.24ZM7.5 5.24C7.5 5.66 7.16 5.99 6.75 5.99C6.33 5.99 6 5.66 6 5.24L6 3.46C6 3.05 6.33 2.71 6.75 2.71C7.16 2.71 7.5 3.05 7.5 3.46L7.5 5.24ZM10.5 5.24C10.5 5.66 10.16 5.99 9.75 5.99C9.33 5.99 9 5.66 9 5.24L9 2.99C9 2.58 9.33 2.24 9.75 2.24C10.16 2.24 10.5 2.58 10.5 2.99L10.5 5.24ZM12 5.24L12 3.46C12 3.05 12.33 2.71 12.75 2.71C13.16 2.71 13.5 3.05 13.5 3.46L13.5 5.24C13.5 5.66 13.16 5.99 12.75 5.99C12.33 5.99 12 5.66 12 5.24ZM13.87 11.24C13.25 11.24 12.75 10.74 12.75 10.12C12.75 9.5 13.25 8.99 13.87 8.99C14.49 8.99 15 9.5 15 10.12C15 10.74 14.49 11.24 13.87 11.24Z" fill="#FFFFFF" fill-opacity="1.000000" fill-rule="evenodd"/>
</svg>
