<svg width="21.751419" height="20.250610" viewBox="0 0 21.7514 20.2506" fill="none" xmlns="http://www.w3.org/2000/svg" xmlns:xlink="http://www.w3.org/1999/xlink">
	<desc>
			Created with Pixso.
	</desc>
	<defs/>
	<path id="Vector - 0" d="M21.31 8.99L14.98 2.63C11.47 -0.88 5.77 -0.88 2.26 2.63L2.25 2.64L0.96 3.97C0.68 4.27 0.69 4.74 0.98 5.02C1.28 5.3 1.74 5.3 2.03 5.01L3.32 3.68C3.84 3.17 4.43 2.73 5.08 2.38L9.43 6.74L0.43 15.74C0.15 16.03 0 16.41 0 16.81C0 17.2 0.15 17.59 0.43 17.87L2.37 19.81C2.66 20.09 3.04 20.25 3.43 20.25C3.83 20.25 4.21 20.09 4.5 19.81L13.5 10.81L14.84 12.15L16.5 13.8C16.78 14.09 17.16 14.24 17.56 14.24C17.95 14.24 18.34 14.09 18.62 13.8L21.31 11.11C21.89 10.53 21.89 9.58 21.31 8.99ZM3.43 18.74L1.5 16.81L7.87 10.43L9.81 12.37L3.43 18.74ZM12.97 9.21L10.87 11.31L8.93 9.37L11.03 7.27C11.17 7.13 11.25 6.94 11.25 6.74C11.25 6.54 11.17 6.35 11.03 6.21L6.59 1.78C9.2 1.04 12 1.77 13.92 3.69L18.07 7.86L15.37 10.56L14.03 9.21C13.89 9.07 13.69 8.99 13.5 8.99C13.3 8.99 13.11 9.07 12.97 9.21ZM17.56 12.74L16.43 11.62L19.12 8.92L20.25 10.05L17.56 12.74Z" fill="#968FCC" fill-opacity="1.000000" fill-rule="evenodd"/>
</svg>
