<svg width="52.000000" height="52.000000" viewBox="0 0 52 52" fill="none" xmlns="http://www.w3.org/2000/svg" xmlns:xlink="http://www.w3.org/1999/xlink">
	<desc>
			Created with Pixso.
	</desc>
	<defs>
		<filter id="filter_18_720_dd" x="0.000000" y="0.000000" width="52.000000" height="52.000000" filterUnits="userSpaceOnUse" color-interpolation-filters="sRGB">
			<feFlood flood-opacity="0" result="BackgroundImageFix"/>
			<feBlend mode="normal" in="SourceGraphic" in2="BackgroundImageFix" result="shape"/>
			<feGaussianBlur stdDeviation="5.33333" result="effect_layerBlur_1"/>
		</filter>
		<linearGradient x1="34.000000" y1="34.000000" x2="18.000000" y2="18.000000" id="paint_linear_18_717_0" gradientUnits="userSpaceOnUse">
			<stop stop-color="#FEB700"/>
			<stop offset="0.660948" stop-color="#FFDB7F"/>
		</linearGradient>
		<linearGradient x1="36.000000" y1="36.000000" x2="16.000004" y2="16.000002" id="paint_linear_18_720_0" gradientUnits="userSpaceOnUse">
			<stop stop-color="#FEB700"/>
			<stop offset="0.660948" stop-color="#FFDB7F"/>
		</linearGradient>
		<linearGradient x1="25.000000" y1="33.000000" x2="19.000000" y2="27.000004" id="paint_linear_18_718_0" gradientUnits="userSpaceOnUse">
			<stop stop-color="#FEB700"/>
			<stop offset="0.660948" stop-color="#FFDB7F"/>
		</linearGradient>
	</defs>
	<path id="Path" d="M18.89 27.15C21.84 27.85 24.14 30.15 24.84 33.1C24.94 33.52 25.41 33.75 25.75 33.48C27 32.48 27.8 31.01 27.97 29.4C27.99 29.16 28.15 28.94 28.38 28.85C31.6 27.55 33.8 24.49 34 21C34 19.34 32.65 18 31 18C27.5 18.19 24.44 20.39 23.14 23.61C23.05 23.84 22.83 24 22.59 24.02C20.98 24.19 19.51 24.99 18.51 26.24C18.24 26.58 18.47 27.05 18.89 27.15Z" fill="url(#paint_linear_18_717_0)" fill-opacity="1.000000" fill-rule="evenodd"/>
	<g opacity="0.500000" filter="url(#filter_18_720_dd)">
		<circle id="Ellipse 6" cx="26.000000" cy="26.000000" r="10.000000" fill="url(#paint_linear_18_720_0)" fill-opacity="1.000000"/>
	</g>
	<path id="Path" d="M22.02 27C20.04 28.11 18.89 30.25 19 32.49C19.02 32.76 19.23 32.97 19.5 32.99C21.75 33.1 23.88 31.95 25 29.97L22.02 27Z" fill="url(#paint_linear_18_718_0)" fill-opacity="1.000000" fill-rule="evenodd"/>
	<circle id="Oval" cx="29.500000" cy="22.500000" r="1.500000" fill="#19054C" fill-opacity="1.000000"/>
</svg>
