<svg width="48.000000" height="48.000000" viewBox="0 0 48 48" fill="none" xmlns="http://www.w3.org/2000/svg" xmlns:xlink="http://www.w3.org/1999/xlink">
	<desc>
			Created with Pixso.
	</desc>
	<defs>
		<clipPath id="clip51_1518">
			<rect id="x-social-media-black-icon 1" rx="-0.500000" width="25.000000" height="22.000000" transform="translate(11.500000 13.500000)" fill="white" fill-opacity="0"/>
		</clipPath>
		<clipPath id="clip51_1517">
			<rect id="Frame 45" rx="23.500000" width="47.000000" height="47.000000" transform="translate(0.500000 0.500000)" fill="white" fill-opacity="0"/>
		</clipPath>
		<linearGradient x1="24.000000" y1="0.000000" x2="24.000000" y2="48.000000" id="paint_linear_51_1517_0" gradientUnits="userSpaceOnUse">
			<stop stop-color="#D8D5F4"/>
			<stop offset="1.000000" stop-color="#D8D5F4" stop-opacity="0.000000"/>
		</linearGradient>
	</defs>
	<rect id="Frame 45" rx="23.500000" width="47.000000" height="47.000000" transform="translate(0.500000 0.500000)" fill="url(#paint_linear_51_1517_0)" fill-opacity="0.320000"/>
	<g clip-path="url(#clip51_1517)">
		<rect id="x-social-media-black-icon 1" rx="-0.500000" width="25.000000" height="22.000000" transform="translate(11.500000 13.500000)" fill="#FFFFFF" fill-opacity="0"/>
		<g clip-path="url(#clip51_1518)">
			<path id="Vector" d="M31.47 13L35.46 13L26.75 22.74L37 36L28.97 36L22.69 27.95L15.5 36L11.51 36L20.82 25.57L11 13L19.22 13L24.9 20.34L31.47 13ZM30.07 33.66L32.28 33.66L18.02 15.21L15.65 15.21L30.07 33.66Z" fill="#D8D5F4" fill-opacity="1.000000" fill-rule="nonzero"/>
		</g>
	</g>
</svg>
